<svg height="1000" width="1000" xmlns="http://www.w3.org/2000/svg"><path d="m1539.7531 340.65723c-8.8214 0-17.4193.7653-25.9375 1.875l-162.8125 392.8125c12.3558 3.2931 25.3567 5.3125 38.75 5.3125h13.125l164.6875-398.125c-9.0782-1.2656-18.381-1.875-27.8125-1.875zm76.5625 15.3125-159.375 384.6875h54.0625l149.0625-359.375c-13.4345-10.2157-27.9536-18.7373-43.75-25.3125zm-164.375 5c-36.4709 17.8979-66.7139 46.5894-86.5625 81.875-.5285.0865-1.0359.2206-1.5625.3125l-96.875 233.4375c10.4145 14.8392 23.4548 27.9032 38.4375 38.125zm246.5625 58.125-133.4375 321.5625h54.375l109.375-264.375c-7.0608-20.7251-17.2923-40.1424-30.3125-57.1875zm-401.25 53.75c-34.9201 27.4015-57.5 69.9459-57.5 117.8125 0 6.2622.5048 12.3768 1.25 18.4375zm474.0625 31.5625-97.8125 236.25h41.25c4.4203 0 8.8232-.1774 13.125-.625l84.0625-202.8125c-11.0311-13.6298-24.843-24.7989-40.625-32.8125zm67.5 98.125-45.9375 110.625c28.4879-22.9111 46.875-58.0968 46.875-97.5 0-4.4653-.481-8.7822-.9375-13.125z" transform="translate(-1039.7531 -40.657227)"/></svg>